<svg xmlns="http://www.w3.org/2000/svg" viewBox="0 0 24 24" width="48" height="48"><path fill="#1488c9" d="M5.79 5.73L6.00 5.70L8.20 5.70L8.41 5.73L8.51 5.76L8.69 5.87L8.83 6.01L8.89 6.10L8.97 6.29L8.99 6.40L8.99 6.60L8.97 6.71L8.89 6.90L8.77 7.07L8.60 7.19L8.51 7.24L8.30 7.29L6.00 7.30L5.79 7.27L5.60 7.19L5.51 7.13L5.37 6.99L5.26 6.81L5.21 6.60L5.20 6.50L5.21 6.40L5.26 6.19L5.37 6.01L5.51 5.87L5.60 5.81ZM6.79 8.23L7.00 8.20L8.20 8.20L8.41 8.23L8.60 8.31L8.77 8.43L8.83 8.51L8.94 8.69L8.97 8.79L8.99 8.90L8.99 9.10L8.97 9.21L8.89 9.40L8.77 9.57L8.60 9.69L8.41 9.77L8.30 9.79L7.00 9.80L6.79 9.77L6.60 9.69L6.43 9.57L6.31 9.40L6.26 9.31L6.21 9.10L6.21 8.90L6.26 8.69L6.31 8.60L6.43 8.43L6.60 8.31ZM5.79 10.73L6.00 10.70L8.20 10.70L8.41 10.73L8.60 10.81L8.69 10.87L8.77 10.93L8.89 11.10L8.97 11.29L8.99 11.40L8.99 11.60L8.97 11.71L8.89 11.90L8.77 12.07L8.60 12.19L8.51 12.24L8.30 12.29L6.00 12.30L5.79 12.27L5.60 12.19L5.43 12.07L5.37 11.99L5.26 11.81L5.21 11.60L5.20 11.50L5.21 11.40L5.26 11.19L5.37 11.01L5.43 10.93L5.60 10.81ZM9.20 13.15L9.20 5.47L9.24 5.05L9.32 4.70L9.38 4.51L9.46 4.31L9.59 4.07L9.79 3.78L9.97 3.57L10.12 3.43L10.40 3.20L10.57 3.09L10.81 2.96L11.01 2.88L11.35 2.78L11.61 2.73L11.97 2.70L12.24 2.71L12.45 2.74L12.80 2.82L12.99 2.88L13.24 2.99L13.55 3.17L13.88 3.43L14.07 3.62L14.30 3.90L14.44 4.13L14.59 4.45L14.68 4.70L14.77 5.11L14.80 5.50L14.80 13.15L15.25 13.49L15.63 13.86L15.98 14.26L16.28 14.70L16.53 15.17L16.74 15.69L16.88 16.20L16.97 16.73L16.99 17.06L17.00 17.41L16.95 17.97L16.89 18.32L16.81 18.66L16.71 18.97L16.58 19.30L16.32 19.80L16.13 20.10L15.92 20.39L15.69 20.66L15.45 20.92L15.20 21.13L14.92 21.35L14.47 21.64L14.00 21.88L13.50 22.06L13.13 22.16L12.61 22.26L12.10 22.29L11.57 22.27L11.19 22.23L10.67 22.11L10.19 21.95L9.84 21.80L9.37 21.55L8.94 21.24L8.55 20.92L8.29 20.64L7.95 20.23L7.66 19.78L7.43 19.33L7.29 18.97L7.14 18.46L7.04 17.94L7.00 17.44L7.01 17.06L7.06 16.53L7.17 16.00L7.32 15.52L7.54 15.04L7.72 14.70L8.01 14.29L8.35 13.88L8.73 13.51ZM10.63 14.09L10.48 14.24L10.17 14.43L9.88 14.64L9.52 14.96L9.36 15.15L9.15 15.44L8.97 15.75L8.82 16.08L8.71 16.43L8.64 16.78L8.60 17.14L8.60 17.38L8.63 17.74L8.70 18.10L8.80 18.45L8.89 18.67L9.00 18.89L9.18 19.20L9.40 19.49L9.65 19.75L9.92 19.99L10.22 20.19L10.54 20.36L10.76 20.46L11.11 20.57L11.46 20.65L11.82 20.69L12.06 20.69L12.42 20.67L12.78 20.60L13.13 20.50L13.35 20.41L13.67 20.25L13.88 20.13L14.26 19.83L14.60 19.49L14.75 19.30L14.94 18.99L15.16 18.56L15.24 18.33L15.33 17.98L15.39 17.50L15.39 17.02L15.34 16.66L15.22 16.20L15.03 15.75L14.85 15.44L14.64 15.15L14.30 14.79L14.03 14.56L13.52 14.24L13.44 14.17L13.31 14.00L13.23 13.81L13.20 13.60L13.20 5.41L13.17 5.23L13.08 4.98L12.99 4.82L12.88 4.68L12.75 4.56L12.52 4.42L12.35 4.35L12.18 4.31L11.91 4.30L11.73 4.33L11.56 4.38L11.32 4.51L11.12 4.68L10.96 4.90L10.85 5.15L10.81 5.32L10.80 5.51L10.80 13.60L10.79 13.71L10.74 13.91ZM14.47 16.90L14.50 17.27L14.49 17.48L14.42 17.91L14.28 18.32L14.18 18.52L14.03 18.76L13.89 18.93L13.63 19.19L13.28 19.45L13.09 19.55L12.82 19.66L12.40 19.77L12.18 19.79L11.82 19.79L11.39 19.72L10.98 19.58L10.78 19.48L10.54 19.33L10.21 19.04L10.06 18.88L9.85 18.58L9.66 18.19L9.58 17.91L9.53 17.70L9.50 17.33L9.51 17.12L9.58 16.69L9.72 16.28L9.82 16.08L9.97 15.84L10.11 15.67L10.37 15.41L10.72 15.15L10.91 15.05L11.18 14.94L11.60 14.83L11.97 14.80L12.18 14.81L12.61 14.88L12.82 14.94L13.09 15.05L13.46 15.27L13.63 15.41L13.89 15.67L14.15 16.02L14.34 16.41L14.42 16.69ZM12.87 17.53L12.90 17.38L12.90 17.22L12.85 16.99L12.78 16.85L12.69 16.72L12.58 16.61L12.38 16.49L12.23 16.43L12.00 16.40L11.84 16.41L11.69 16.45L11.55 16.52L11.42 16.61L11.26 16.78L11.19 16.92L11.13 17.07L11.10 17.22L11.10 17.38L11.15 17.61L11.22 17.75L11.31 17.88L11.42 17.99L11.55 18.08L11.77 18.17L11.92 18.20L12.16 18.19L12.31 18.15L12.45 18.08L12.58 17.99L12.74 17.82L12.81 17.68Z"/></svg>
